<svg width="34" height="33" viewBox="0 0 34 33" fill="none" xmlns="http://www.w3.org/2000/svg">
<path d="M31.2656 7.16291C31.1969 7.23164 31.1762 7.33473 31.2106 7.42579C32.5164 10.8708 31.3068 14.5632 29.5869 16.8621C27.257 19.9772 20.9753 26.259 18.2794 28.1696C15.185 30.3637 9.78467 31.8208 5.66958 27.7057C1.55449 23.5906 3.01152 18.192 5.20566 15.0958C7.1163 12.4 13.3998 6.11824 16.5131 3.78836C18.8121 2.06845 22.5045 0.858835 25.9495 2.16467C26.0405 2.19903 26.1436 2.17841 26.2124 2.10968C21.9976 -0.12913 17.1403 0.00145329 17.1403 0.00145329C17.1403 0.00145329 9.58536 -0.203012 5.14381 4.23853C0.702267 8.68008 0.906727 16.235 0.906727 16.235C0.906727 16.235 0.702267 23.7899 5.14381 28.2315C9.58536 32.673 17.1403 32.4685 17.1403 32.4685C17.1403 32.4685 24.6952 32.673 29.1367 28.2315C33.5783 23.7899 33.3738 16.235 33.3738 16.235C33.3738 16.235 33.5044 11.3776 31.2673 7.16291H31.2656Z" fill="white"/>
</svg>
