<svg width="264" height="33" viewBox="0 0 264 33" fill="none" xmlns="http://www.w3.org/2000/svg">
<path d="M248.164 18.538L234.825 1.85371H237.404L249.091 16.8051L261.02 1.85371H263.357L250.018 18.538V30.628H248.164V18.538Z" fill="white"/>
<path d="M206.046 30.628V1.85371H220.755C222.233 1.85371 223.549 1.97461 224.705 2.21641C225.86 2.45822 226.867 2.86122 227.727 3.42542C228.587 3.98962 229.259 4.76876 229.742 5.76283C230.226 6.7569 230.468 7.99277 230.468 9.47044C230.468 11.0824 229.957 12.5735 228.936 13.9438C227.942 15.2871 226.491 16.1737 224.584 16.6036V16.6842C226.303 16.8991 227.62 17.5439 228.533 18.6186C229.473 19.6932 229.957 21.0366 229.984 22.6486C230.038 25.2815 230.118 27.1488 230.226 28.2503C230.333 29.325 230.521 30.1175 230.79 30.628H228.936C228.694 30.3862 228.506 29.7951 228.372 28.8548C228.264 27.8876 228.184 26.2487 228.13 23.9382C228.103 22.6486 227.955 21.6008 227.687 20.7948C227.445 19.9888 227.042 19.344 226.478 18.8604C225.94 18.3768 225.202 18.0409 224.261 17.8529C223.348 17.6379 222.166 17.5305 220.715 17.5305H207.899V30.628H206.046ZM207.899 3.46572V15.9185H220.433C221.239 15.9185 222.045 15.8782 222.851 15.7976C223.657 15.6901 224.503 15.4349 225.39 15.0319C226.303 14.602 227.069 13.9303 227.687 13.0169C228.305 12.1034 228.614 10.8809 228.614 9.34954C228.614 8.22113 228.412 7.2808 228.009 6.52853C227.606 5.74939 227.042 5.14489 226.317 4.71502C225.618 4.25829 224.812 3.93589 223.899 3.74782C222.985 3.55975 221.991 3.46572 220.916 3.46572H207.899Z" fill="white"/>
<path d="M171.929 30.628L185.148 1.85371H187.243L200.462 30.628H198.366L194.135 21.359H178.256L174.025 30.628H171.929ZM186.195 3.94932L178.982 19.747H193.409L186.195 3.94932Z" fill="white"/>
<path d="M148.024 30.628V1.85371H149.877V29.016H168.738V30.628H148.024Z" fill="white"/>
<path d="M114.322 19.9889V1.85382H116.176V19.9083C116.176 23.1323 117.022 25.5637 118.715 27.2026C120.434 28.8415 123.215 29.6609 127.057 29.6609C130.899 29.6609 133.666 28.8415 135.359 27.2026C137.078 25.5637 137.938 23.1323 137.938 19.9083V1.85382H139.792V19.9889C139.792 27.5116 135.547 31.2729 127.057 31.2729C118.567 31.2729 114.322 27.5116 114.322 19.9889Z" fill="white"/>
<path d="M47.2686 30.6288V1.85451H61.9781C63.4558 1.85451 64.7722 1.97541 65.9275 2.21721C67.0828 2.45901 68.0903 2.86201 68.95 3.42621C69.8098 3.99042 70.4814 4.76955 70.965 5.76362C71.4486 6.75769 71.6904 7.99356 71.6904 9.47123C71.6904 11.0832 71.18 12.5743 70.159 13.9445C69.165 15.2879 67.7142 16.1745 65.8066 16.6044V16.685C67.5261 16.8999 68.8426 17.5447 69.756 18.6194C70.6964 19.694 71.18 21.0374 71.2068 22.6494C71.2606 25.2823 71.3412 27.1496 71.4486 28.2511C71.5561 29.3258 71.7442 30.1183 72.0128 30.6288H70.159C69.9172 30.387 69.7292 29.7959 69.5948 28.8556C69.4874 27.8884 69.4068 26.2495 69.353 23.939C69.3262 22.6494 69.1784 21.6016 68.9097 20.7956C68.6679 19.9896 68.2649 19.3448 67.7007 18.8612C67.1634 18.3776 66.4246 18.0417 65.4842 17.8537C64.5707 17.6387 63.3886 17.5313 61.9378 17.5313H49.1224V30.6288H47.2686ZM49.1224 3.46651V15.9193H61.6557C62.4617 15.9193 63.2677 15.879 64.0737 15.7984C64.8797 15.6909 65.726 15.4357 66.6126 15.0326C67.5261 14.6028 68.2918 13.9311 68.9097 13.0176C69.5277 12.1042 69.8366 10.8817 69.8366 9.35033C69.8366 8.22193 69.6351 7.28159 69.2321 6.52932C68.8291 5.75019 68.2649 5.14569 67.5395 4.71582C66.841 4.25908 66.035 3.93668 65.1215 3.74861C64.208 3.56055 63.214 3.46651 62.1393 3.46651H49.1224Z" fill="white"/>
<path d="M36.9509 30.6288V1.85451H38.8047V30.6288H36.9509Z" fill="white"/>
<path d="M27.6056 19.7074H29.4594C29.2982 21.1044 28.8683 22.5015 28.1698 23.8986C27.4713 25.2688 26.5175 26.5181 25.3085 27.6465C24.0995 28.748 22.6487 29.6346 20.9561 30.3063C19.2635 30.9511 17.3828 31.2735 15.3141 31.2735C13.1378 31.2735 11.1094 30.9377 9.22873 30.266C7.34806 29.5943 5.72262 28.6137 4.35241 27.3241C2.98221 26.0076 1.90754 24.4225 1.1284 22.5687C0.376134 20.688 0 18.579 0 16.2416C0 14.4415 0.308968 12.6548 0.926903 10.8816C1.57171 9.10843 2.52548 7.49643 3.78821 6.04563C5.05095 4.56795 6.64952 3.39925 8.58393 2.53951C10.5452 1.65291 12.7886 1.20961 15.3141 1.20961C18.8605 1.20961 21.8427 2.04248 24.2607 3.70822C26.7056 5.34709 28.2773 7.73823 28.9758 10.8816H27.122C26.4772 8.2487 25.0667 6.24713 22.8905 4.87692C20.7143 3.50672 18.1888 2.82161 15.3141 2.82161C13.3259 2.82161 11.4855 3.17088 9.79293 3.86942C8.12719 4.56795 6.70326 5.54859 5.52112 6.81133C4.33898 8.0472 3.42551 9.47114 2.78071 11.0831C2.16277 12.6951 1.85381 14.4146 1.85381 16.2416C1.85381 18.0685 2.13591 19.788 2.70011 21.4C3.29118 23.012 4.16435 24.4494 5.31962 25.7121C6.47489 26.948 7.89883 27.9152 9.59143 28.6137C11.284 29.3122 13.1916 29.6615 15.3141 29.6615C18.5381 29.6615 21.2516 28.7749 23.4547 27.0017C25.6846 25.2285 27.0683 22.797 27.6056 19.7074Z" fill="white"/>
<path d="M107.266 7.16291C107.197 7.23164 107.176 7.33473 107.211 7.42579C108.516 10.8708 107.307 14.5632 105.587 16.8621C103.257 19.9772 96.9753 26.259 94.2794 28.1696C91.185 30.3637 85.7847 31.8208 81.6696 27.7057C77.5545 23.5906 79.0115 18.192 81.2057 15.0958C83.1163 12.4 89.3998 6.11824 92.5131 3.78836C94.8121 2.06845 98.5045 0.858835 101.949 2.16467C102.041 2.19903 102.144 2.17841 102.212 2.10968C97.9976 -0.12913 93.1403 0.00145329 93.1403 0.00145329C93.1403 0.00145329 85.5854 -0.203012 81.1438 4.23853C76.7023 8.68008 76.9067 16.235 76.9067 16.235C76.9067 16.235 76.7023 23.7899 81.1438 28.2315C85.5854 32.673 93.1403 32.4685 93.1403 32.4685C93.1403 32.4685 100.695 32.673 105.137 28.2315C109.578 23.7899 109.374 16.235 109.374 16.235C109.374 16.235 109.504 11.3776 107.267 7.16291H107.266Z" fill="white"/>
</svg>
